<?xml version="1.0" encoding="utf-8"?>
<!-- Generator: Adobe Illustrator 26.0.3, SVG Export Plug-In . SVG Version: 6.00 Build 0)  -->
<svg version="1.1" id="Layer_1" xmlns="http://www.w3.org/2000/svg" xmlns:xlink="http://www.w3.org/1999/xlink" x="0px" y="0px"
	 viewBox="0 0 125 29" style="enable-background:new 0 0 125 29;" xml:space="preserve">
<style type="text/css">
	.st0{fill:#AB4FF4;}
	.st1{fill:#FFFFFF;}
	.st2{fill:#FFFFFF;}
	.st3{fill:#5F37FF;}
</style>
<g>
	<path class="st2" d="M102.7,10.1h-5.2V23h5.2V10.1z"/>
	<path class="st2" d="M112.1,10.1h-5.2V23h5.2V10.1z"/>
	<path class="st3" d="M109.5,1.4c-1.6,0-2.9,1-3.4,2.4h-2.7c-0.4-1.4-1.8-2.4-3.4-2.4c-1.9,0-3.5,1.6-3.5,3.5s1.6,3.5,3.5,3.5
		c1.6,0,2.9-1,3.4-2.4h2.7c0.4,1.4,1.8,2.4,3.4,2.4c2,0,3.5-1.6,3.5-3.5S111.5,1.4,109.5,1.4L109.5,1.4z M101.5,5.4
		c-0.2,0.5-0.8,0.9-1.4,0.9c-0.6,0-1.2-0.4-1.4-0.9c-0.1-0.2-0.1-0.4-0.1-0.6c0-0.1,0-0.2,0-0.3c0-0.1,0-0.2,0.1-0.3
		c0-0.1,0.1-0.1,0.1-0.2c0.3-0.4,0.7-0.7,1.3-0.7c0.5,0,1,0.3,1.3,0.7c0.1,0.1,0.1,0.1,0.1,0.2c0,0.1,0.1,0.2,0.1,0.3
		c0,0.1,0,0.2,0,0.3C101.6,5.1,101.6,5.3,101.5,5.4L101.5,5.4z M109.6,6.3c-0.8,0-1.5-0.7-1.5-1.5s0.7-1.5,1.5-1.5
		c0.8,0,1.5,0.7,1.5,1.5S110.4,6.3,109.6,6.3z"/>
	<path class="st2" d="M11.9,14.8c0-5.3,3.4-8.6,6.9-8.6c1.9,0,3,0.7,4,1.7l-0.2-2.4V0h5.2v23h-4.3l-0.4-1.6h-0.1
		c-1.2,1.2-2.8,2-4.4,2C14.6,23.4,11.9,20.2,11.9,14.8z M22.7,17.9v-6.5c-0.8-0.7-1.8-1-2.6-1c-1.5,0-2.8,1.3-2.8,4.4
		s1.1,4.4,2.9,4.4C21.2,19.2,21.9,18.9,22.7,17.9L22.7,17.9z"/>
	<path class="st2" d="M31.2,14.8c0-5.3,3.9-8.5,7.9-8.5c4.8,0,7.2,3.4,7.2,7.9c0,0.9-0.1,1.8-0.2,2.2h-9.9c0.5,2.2,2.1,3.2,4.2,3.2
		c1.2,0,2.4-0.4,3.6-1l1.7,3.1c-1.7,1.2-4,1.8-6,1.8C34.9,23.4,31.2,20.3,31.2,14.8L31.2,14.8z M41.9,13c0-1.6-0.7-2.8-2.6-2.8
		c-1.5,0-2.7,0.9-3.1,2.8H41.9L41.9,13z"/>
	<path class="st2" d="M49.6,6.7h4.2l0.4,1.6h0.1c1.3-1.1,3-2,4.7-2c4,0,6.5,3.3,6.5,8.3c0,5.6-3.4,8.8-7,8.8c-1.4,0-2.8-0.6-3.9-1.7
		l0.2,2.5V29h-5.2V6.7z M60.2,14.6c0-2.9-0.9-4.2-2.7-4.2c-1,0-1.8,0.4-2.7,1.4v6.5c0.8,0.7,1.7,1,2.5,1
		C58.9,19.2,60.2,18,60.2,14.6L60.2,14.6z"/>
	<path class="st2" d="M69,17.7V0h5.2v17.9c0,1.1,0.5,1.4,0.9,1.4c0.2,0,0.3,0,0.6-0.1l0.6,3.7c-0.6,0.2-1.4,0.4-2.6,0.4
		C70.2,23.4,69,21.1,69,17.7L69,17.7z"/>
	<path class="st2" d="M77.8,14.8c0-5.4,3.9-8.5,8.2-8.5c4.2,0,8.2,3.1,8.2,8.5c0,5.4-3.9,8.6-8.2,8.6C81.7,23.4,77.8,20.3,77.8,14.8
		L77.8,14.8z M88.8,14.8c0-2.7-0.9-4.5-2.9-4.5s-2.9,1.8-2.9,4.5c0,2.7,0.9,4.5,2.9,4.5S88.8,17.6,88.8,14.8L88.8,14.8z"/>
</g>
</svg>
