<svg width="122" height="35" viewBox="0 0 122 35" fill="none" xmlns="http://www.w3.org/2000/svg">
<g clip-path="url(#clip0_2886_12219)">
<path d="M109.639 12.156H103.363V27.7585H109.639V12.156Z" fill="#FFFFFF"/>
<path d="M121.03 12.156H114.754V27.7585H121.03V12.156Z" fill="#FFFFFF"/>
<path d="M117.895 1.67017C115.992 1.67017 114.372 2.90227 113.831 4.58699H110.513C109.973 2.90227 108.353 1.67017 106.449 1.67017C104.096 1.67017 102.18 3.54347 102.18 5.84424C102.18 8.145 104.096 10.0183 106.449 10.0183C108.353 10.0183 109.973 8.7862 110.513 7.10149H113.831C114.372 8.7862 115.992 10.0183 117.895 10.0183C120.262 10.0183 122.165 8.145 122.165 5.84424C122.165 3.54347 120.262 1.67017 117.895 1.67017V1.67017ZM108.173 6.53572C107.903 7.17692 107.26 7.61696 106.501 7.61696C105.742 7.61696 105.099 7.17692 104.829 6.53572C104.739 6.32199 104.688 6.08311 104.688 5.84424C104.688 5.71851 104.7 5.59279 104.726 5.47963C104.726 5.36648 104.778 5.25333 104.829 5.15275C104.868 5.06474 104.919 4.97673 104.983 4.88873C105.292 4.3984 105.858 4.07151 106.501 4.07151C107.144 4.07151 107.71 4.3984 108.018 4.88873C108.083 4.97673 108.134 5.06474 108.173 5.15275C108.224 5.25333 108.263 5.36648 108.276 5.47963C108.301 5.59279 108.314 5.71851 108.314 5.84424C108.314 6.08311 108.263 6.32199 108.173 6.53572V6.53572ZM117.96 7.61696C116.957 7.61696 116.146 6.82489 116.146 5.84424C116.146 4.86358 116.957 4.07151 117.96 4.07151C118.963 4.07151 119.773 4.86358 119.773 5.84424C119.773 6.82489 118.963 7.61696 117.96 7.61696Z" fill="#5F37FF"/>
<path d="M0 17.8781C0 11.441 4.14113 7.5435 8.3337 7.5435C10.5715 7.5435 11.909 8.33557 13.2079 9.56767L13.0021 6.62571V0H19.3038V27.7726H14.1467L13.6966 25.8616H13.568C12.1533 27.2572 10.1599 28.2504 8.24367 28.2504C3.24088 28.2504 0 24.3152 0 17.8781ZM13.0021 21.5744V13.704C12.0247 12.8742 10.8544 12.5474 9.83839 12.5474C8.05077 12.5474 6.46891 14.1315 6.46891 17.8278C6.46891 21.5241 7.76783 23.1963 9.92842 23.1963C11.1502 23.1963 12.0761 22.7939 13.015 21.5618L13.0021 21.5744Z" fill="#FFFFFF"/>
<path d="M23.255 17.8762C23.255 11.4768 27.962 7.5542 32.7976 7.5542C38.6492 7.5542 41.4914 11.6906 41.4914 17.0464C41.4914 18.1654 41.3757 19.1963 41.2471 19.7495H29.3381C29.904 22.4149 31.8202 23.559 34.3795 23.559C35.8456 23.559 37.2989 23.119 38.7264 22.3269L40.7584 26.0232C38.6492 27.4942 35.8842 28.2485 33.4793 28.2485C27.7048 28.2485 23.2422 24.4768 23.2422 17.8762H23.255ZM36.1414 15.6132C36.1414 13.6644 35.254 12.1935 32.9777 12.1935C31.1901 12.1935 29.6854 13.3124 29.2867 15.6132H36.1543H36.1414Z" fill="#FFFFFF"/>
<path d="M45.5352 8.01938H50.6537L51.1038 9.9304H51.271C52.8143 8.54743 54.8463 7.5542 56.9168 7.5542C61.791 7.5542 64.8004 11.4894 64.8004 17.5619C64.8004 24.3511 60.6979 28.2485 56.351 28.2485C54.6019 28.2485 53.0201 27.5319 51.5925 26.2244L51.7983 29.2795V35H45.5352V8.01938ZM58.3315 17.6373C58.3315 14.1799 57.2769 12.5581 55.0392 12.5581C53.856 12.5581 52.8914 13.0735 51.7854 14.2302V22.0503C52.8014 22.9178 53.856 23.207 54.8334 23.207C56.7882 23.207 58.3315 21.6605 58.3315 17.6499V17.6373Z" fill="#FFFFFF"/>
<path d="M68.9062 21.3732V0H75.1694V21.6121C75.1694 22.8819 75.8253 23.2843 76.314 23.2843C76.5583 23.2843 76.7255 23.2843 77.047 23.2088L77.7801 27.7349C77.0856 28.0115 76.031 28.2504 74.655 28.2504C70.3466 28.2504 68.9191 25.5096 68.9191 21.3732H68.9062Z" fill="#FFFFFF"/>
<path d="M79.5703 17.8762C79.5703 11.3259 84.3288 7.5542 89.4473 7.5542C94.5658 7.5542 99.3628 11.3259 99.3628 17.8762C99.3628 24.4265 94.6044 28.2485 89.4473 28.2485C84.2902 28.2485 79.5703 24.4391 79.5703 17.8762V17.8762ZM92.8939 17.8762C92.8939 14.6199 91.8008 12.47 89.4344 12.47C87.0681 12.47 85.9878 14.6199 85.9878 17.8762C85.9878 21.1325 87.0809 23.2824 89.4344 23.2824C91.7879 23.2824 92.8939 21.1828 92.8939 17.8762V17.8762Z" fill="#FFFFFF"/>
</g>
<defs>
<clipPath id="clip0_2886_12219">
<rect width="122" height="35" fill="white"/>
</clipPath>
</defs>
</svg>
