<svg width="70" height="21" viewBox="0 0 70 21" fill="none" xmlns="http://www.w3.org/2000/svg">
<path d="M62.8238 6.96631H59.2275V15.9068H62.8238V6.96631Z" fill="white"/>
<path d="M69.3531 6.96631H65.7568V15.9068H69.3531V6.96631Z" fill="white"/>
<path d="M67.5543 0.957031C66.4636 0.957031 65.535 1.66305 65.2255 2.62843H63.3242C63.0147 1.66305 62.0861 0.957031 60.9955 0.957031C59.6469 0.957031 58.5488 2.03047 58.5488 3.34886C58.5488 4.66725 59.6469 5.74069 60.9955 5.74069C62.0861 5.74069 63.0147 5.03467 63.3242 4.06929H65.2255C65.535 5.03467 66.4636 5.74069 67.5543 5.74069C68.9102 5.74069 70.0009 4.66725 70.0009 3.34886C70.0009 2.03047 68.9102 0.957031 67.5543 0.957031ZM61.983 3.7451C61.8282 4.11252 61.4597 4.36467 61.025 4.36467C60.5902 4.36467 60.2217 4.11252 60.0669 3.7451C60.0153 3.62262 59.9859 3.48574 59.9859 3.34886C59.9859 3.27682 59.9932 3.20477 60.008 3.13994C60.008 3.0751 60.0375 3.01026 60.0669 2.95262C60.089 2.90219 60.1185 2.85176 60.1554 2.80133C60.3322 2.52037 60.6565 2.33305 61.025 2.33305C61.3934 2.33305 61.7177 2.52037 61.8945 2.80133C61.9314 2.85176 61.9609 2.90219 61.983 2.95262C62.0125 3.01026 62.0346 3.0751 62.0419 3.13994C62.0567 3.20477 62.064 3.27682 62.064 3.34886C62.064 3.48574 62.0346 3.62262 61.983 3.7451ZM67.5911 4.36467C67.0163 4.36467 66.552 3.9108 66.552 3.34886C66.552 2.78692 67.0163 2.33305 67.5911 2.33305C68.1659 2.33305 68.6302 2.78692 68.6302 3.34886C68.6302 3.9108 68.1659 4.36467 67.5911 4.36467Z" fill="#6369FF"/>
<path d="M0 10.2445C0 6.55592 2.37295 4.32258 4.77538 4.32258C6.05766 4.32258 6.82408 4.77645 7.56839 5.48248L7.45048 3.79667V0H11.0615V15.9143H8.10636L7.84843 14.8193H7.77474C6.9641 15.6189 5.82184 16.1881 4.7238 16.1881C1.85709 16.1881 0 13.9331 0 10.2445ZM7.45048 12.3626V7.85269C6.89041 7.37721 6.21979 7.18989 5.63761 7.18989C4.61326 7.18989 3.70682 8.09764 3.70682 10.2157C3.70682 12.3338 4.45113 13.2919 5.68919 13.2919C6.38929 13.2919 6.91988 13.0614 7.45785 12.3554L7.45048 12.3626Z" fill="white"/>
<path d="M13.3228 10.2443C13.3228 6.57733 16.02 4.32959 18.7909 4.32959C22.144 4.32959 23.7726 6.69981 23.7726 9.76884C23.7726 10.41 23.7063 11.0008 23.6326 11.3178H16.8085C17.1328 12.8451 18.2308 13.5007 19.6973 13.5007C20.5375 13.5007 21.3702 13.2485 22.1882 12.7946L23.3526 14.9127C22.144 15.7556 20.5596 16.1879 19.1815 16.1879C15.8726 16.1879 13.3154 14.0266 13.3154 10.2443H13.3228ZM20.707 8.94755C20.707 7.83088 20.1985 6.98798 18.8941 6.98798C17.8697 6.98798 17.0075 7.62916 16.7791 8.94755H20.7143H20.707Z" fill="white"/>
<path d="M26.0957 4.59615H29.0287L29.2867 5.6912H29.3825C30.2668 4.89873 31.4312 4.32959 32.6176 4.32959C35.4106 4.32959 37.1351 6.58454 37.1351 10.0642C37.1351 13.9545 34.7842 16.1879 32.2934 16.1879C31.2911 16.1879 30.3847 15.7772 29.5667 15.028L29.6846 16.7786V20.0566H26.0957V4.59615ZM33.4283 10.1074C33.4283 8.12626 32.824 7.1969 31.5417 7.1969C30.8637 7.1969 30.311 7.49228 29.6772 8.15507V12.6362C30.2594 13.1332 30.8637 13.2989 31.4238 13.2989C32.5439 13.2989 33.4283 12.4128 33.4283 10.1146V10.1074Z" fill="white"/>
<path d="M39.4844 12.2473V0H43.0733V12.3842C43.0733 13.1118 43.4491 13.3424 43.7292 13.3424C43.8692 13.3424 43.965 13.3424 44.1492 13.2991L44.5693 15.8927C44.1713 16.0512 43.567 16.1881 42.7785 16.1881C40.3097 16.1881 39.4917 14.6175 39.4917 12.2473H39.4844Z" fill="white"/>
<path d="M45.5947 10.2443C45.5947 6.49088 48.3214 4.32959 51.2544 4.32959C54.1875 4.32959 56.9363 6.49088 56.9363 10.2443C56.9363 13.9978 54.2096 16.1879 51.2544 16.1879C48.2993 16.1879 45.5947 14.005 45.5947 10.2443V10.2443ZM53.2294 10.2443C53.2294 8.37841 52.603 7.14647 51.2471 7.14647C49.8911 7.14647 49.2721 8.37841 49.2721 10.2443C49.2721 12.1102 49.8985 13.3422 51.2471 13.3422C52.5957 13.3422 53.2294 12.1391 53.2294 10.2443V10.2443Z" fill="white"/>
</svg>
